# xmcd CD database file
#
# Track frame offsets:
#	150
#	13145
#	26070
#	38992
#	53352
#	65030
#	76517
#	90060
#	101995
#	114982
#	128405
#	141362
#	155482
#	169655
#	182955
#	196282
#	209945
#	224380
#	238417
#	252955
#	263522
#	276542
#	291082
#	305245
#
# Disc length: 4249 seconds
#
# Revision: 0
# Processed by: cddbd v1.5.2PL0 Copyright (c) Steve Scherf et al.
# Submitted via: CDex 1.70beta2
#
DISCID=66109718
DTITLE=Bumble Bee Slim - Complete Recorded Works (Volume 6)
DYEAR=1936
DGENRE=Blues
TTITLE0=Meet Me In The Bottom
TTITLE1=No Good Woman
TTITLE2=When The Music Sounds Good
TTITLE3=When I Get My Money
TTITLE4=New Bricks In My Pillow
TTITLE5=New Big 80 Blues
TTITLE6=New Policy Dream Blues
TTITLE7=Back In Jail Again
TTITLE8=Wet Clothes Blues
TTITLE9=Any Time A Night
TTITLE10=Fast Life Blues
TTITLE11=Rock Hearted Woman
TTITLE12=Cry On! Cry On!
TTITLE13=East Me Down
TTITLE14=Hard Driving Man
TTITLE15=Must I Keep On Crying
TTITLE16=Funning Feelin'
TTITLE17=Lady Friend
TTITLE18=Letter Writing
TTITLE19=Upside Down
TTITLE20=New How Long How Long
TTITLE21=Honest Confession
TTITLE22=Christmas And No Santa Clause
TTITLE23=Buggie Bed
EXTD=YEAR: 1936
EXTT0=
EXTT1=
EXTT2=
EXTT3=
EXTT4=
EXTT5=
EXTT6=
EXTT7=
EXTT8=
EXTT9=
EXTT10=
EXTT11=
EXTT12=
EXTT13=
EXTT14=
EXTT15=
EXTT16=
EXTT17=
EXTT18=
EXTT19=
EXTT20=
EXTT21=
EXTT22=
EXTT23=
PLAYORDER=
